<?xml version="1.0" encoding="UTF-8"?>
<svg version="1.1" xmlns="http://www.w3.org/2000/svg" width="78" height="76">
<path d="M0 0 C1.45212891 0.02513672 1.45212891 0.02513672 2.93359375 0.05078125 C3.90425781 0.05464844 4.87492187 0.05851563 5.875 0.0625 C8.37109375 0.36328125 8.37109375 0.36328125 10.37109375 2.36328125 C10.49609375 5.98828125 10.49609375 5.98828125 10.37109375 9.36328125 C9.05109375 9.69328125 7.73109375 10.02328125 6.37109375 10.36328125 C6.37109375 31.48328125 6.37109375 52.60328125 6.37109375 74.36328125 C-1.54890625 74.36328125 -9.46890625 74.36328125 -17.62890625 74.36328125 C-17.62890625 65.78328125 -17.62890625 57.20328125 -17.62890625 48.36328125 C-22.02203125 48.51796875 -22.02203125 48.51796875 -26.50390625 48.67578125 C-27.4254248 48.70067627 -28.34694336 48.72557129 -29.29638672 48.7512207 C-30.02229004 48.7843335 -30.74819336 48.81744629 -31.49609375 48.8515625 C-32.23972168 48.87774658 -32.98334961 48.90393066 -33.74951172 48.9309082 C-36.03624451 49.23057716 -36.03624451 49.23057716 -37.62890625 52.36328125 C-39.11390625 52.85828125 -39.11390625 52.85828125 -40.62890625 53.36328125 C-40.91765625 54.02328125 -41.20640625 54.68328125 -41.50390625 55.36328125 C-42.62890625 57.36328125 -42.62890625 57.36328125 -45.00390625 58.11328125 C-49.09009382 58.50244197 -52.64627512 58.24831039 -56.62890625 57.36328125 C-56.95890625 55.71328125 -57.28890625 54.06328125 -57.62890625 52.36328125 C-59.27890625 52.03328125 -60.92890625 51.70328125 -62.62890625 51.36328125 C-63.63226443 48.24172246 -63.43561548 46.48927953 -62.62890625 43.36328125 C-63.12390625 41.87828125 -63.12390625 41.87828125 -63.62890625 40.36328125 C-62.37890625 38.17578125 -62.37890625 38.17578125 -60.62890625 36.36328125 C-59.63890625 36.36328125 -58.64890625 36.36328125 -57.62890625 36.36328125 C-57.48453125 35.72390625 -57.34015625 35.08453125 -57.19140625 34.42578125 C-56.62890625 32.36328125 -56.62890625 32.36328125 -55.62890625 31.36328125 C-55.3969776 29.84858677 -55.21675387 28.32573563 -55.06640625 26.80078125 C-54.98261719 25.97449219 -54.89882813 25.14820312 -54.8125 24.296875 C-54.75191406 23.65878906 -54.69132812 23.02070313 -54.62890625 22.36328125 C-56.60890625 22.03328125 -58.58890625 21.70328125 -60.62890625 21.36328125 C-60.62890625 17.40328125 -60.62890625 13.44328125 -60.62890625 9.36328125 C-59.68015625 9.28078125 -58.73140625 9.19828125 -57.75390625 9.11328125 C-56.72265625 8.86578125 -55.69140625 8.61828125 -54.62890625 8.36328125 C-53.40654423 6.37765179 -53.40654423 6.37765179 -52.62890625 4.36328125 C-51.75566963 4.35448189 -51.75566963 4.35448189 -50.86479187 4.34550476 C-44.81391664 4.28164591 -38.76357701 4.19724621 -32.71313477 4.10083008 C-30.45409194 4.06754439 -28.19496522 4.03952392 -25.93579102 4.0168457 C-22.69120477 3.98336699 -19.44738992 3.93105407 -16.203125 3.875 C-14.68424934 3.86541512 -14.68424934 3.86541512 -13.13468933 3.8556366 C-12.19394058 3.83584244 -11.25319183 3.81604828 -10.28393555 3.7956543 C-9.45564743 3.78455124 -8.62735931 3.77344818 -7.77397156 3.76200867 C-4.29553338 3.11543224 -3.57002144 0.49333134 0 0 Z M-15.62890625 59.36328125 C-15.29890625 60.02328125 -14.96890625 60.68328125 -14.62890625 61.36328125 C-14.29890625 60.70328125 -13.96890625 60.04328125 -13.62890625 59.36328125 C-14.28890625 59.36328125 -14.94890625 59.36328125 -15.62890625 59.36328125 Z " fill="#D2CED9" transform="translate(65.62890625,1.63671875)"/>
<path d="M0 0 C1.98 0 3.96 0 6 0 C6 21.12 6 42.24 6 64 C-1.92 64 -9.84 64 -18 64 C-18 55.42 -18 46.84 -18 38 C-15.03 38 -12.06 38 -9 38 C-8.91932235 41.12551199 -8.8596601 44.24895891 -8.8125 47.375 C-8.78736328 48.26445313 -8.76222656 49.15390625 -8.73632812 50.0703125 C-8.72182617 51.34648438 -8.72182617 51.34648438 -8.70703125 52.6484375 C-8.68346558 53.82672119 -8.68346558 53.82672119 -8.65942383 55.02880859 C-8.77181396 55.67930176 -8.8842041 56.32979492 -9 57 C-9.99 57.66 -10.98 58.32 -12 59 C-9.69 59.33 -7.38 59.66 -5 60 C-4.67 57.03 -4.34 54.06 -4 51 C-2 55 -2 55 -2 58 C-2.66 58 -3.32 58 -4 58 C-4 58.66 -4 59.32 -4 60 C-2.02 60 -0.04 60 2 60 C1.9278125 59.23558594 1.855625 58.47117188 1.78125 57.68359375 C0.59928936 44.04179808 0.91778632 30.62429722 2 17 C1.34 17 0.68 17 0 17 C0 11.39 0 5.78 0 0 Z M-16 49 C-15.67 49.66 -15.34 50.32 -15 51 C-14.67 50.34 -14.34 49.68 -14 49 C-14.66 49 -15.32 49 -16 49 Z " fill="#FDFD09" transform="translate(66,12)"/>
<path d="M0 0 C3.3 0.33 6.6 0.66 10 1 C9.99476318 1.82612793 9.98952637 2.65225586 9.98413086 3.50341797 C9.96692409 6.61588272 9.95447054 9.72832294 9.94506836 12.84082031 C9.93766223 14.83139675 9.92494526 16.82195117 9.91210938 18.8125 C9.89573855 25.29534585 9.99901687 31.6227808 10.88110352 38.05126953 C11 40 11 40 10 43 C8.02 43 6.04 43 4 43 C4 42.34 4 41.68 4 41 C4.66 41 5.32 41 6 41 C5.505 39.515 5.505 39.515 5 38 C4.01 40.475 4.01 40.475 3 43 C0.36 43 -2.28 43 -5 43 C-4.25943359 42.50886719 -4.25943359 42.50886719 -3.50390625 42.0078125 C-1.16879664 38.89028954 -1.77768881 35.60001085 -1.9375 31.875 C-2.15359551 22.76359358 -1.27740349 14.01025676 0 5 C-0.66 5 -1.32 5 -2 5 C-1.34 3.35 -0.68 1.7 0 0 Z " fill="#393234" transform="translate(58,29)"/>
<path d="M0 0 C0.9796875 0.00515625 1.959375 0.0103125 2.96875 0.015625 C3.9484375 0.01046875 4.928125 0.0053125 5.9375 0 C8.46875 0.265625 8.46875 0.265625 10.46875 2.265625 C10.65625 5.828125 10.65625 5.828125 10.46875 9.265625 C9.46875 10.265625 9.46875 10.265625 7.40234375 10.36328125 C3.93554688 10.31445312 3.93554688 10.31445312 0.46875 10.265625 C0.46875 14.885625 0.46875 19.505625 0.46875 24.265625 C-1.51125 24.925625 -3.49125 25.585625 -5.53125 26.265625 C-8.85587531 23.3699836 -9.83276606 21.57294263 -10.53125 17.265625 C-11.19125 16.935625 -11.85125 16.605625 -12.53125 16.265625 C-12.510625 15.5025 -12.49 14.739375 -12.46875 13.953125 C-12.40182159 11.16376714 -12.40182159 11.16376714 -13.53125 8.265625 C-13.03125 6.203125 -13.03125 6.203125 -11.53125 4.265625 C-9.22095915 3.52303151 -6.885498 2.854187 -4.53125 2.265625 C-2.53125 0.265625 -2.53125 0.265625 0 0 Z " fill="#D1CCD3" transform="translate(65.53125,1.734375)"/>
<path d="M0 0 C0.99 0 1.98 0 3 0 C3 5.28 3 10.56 3 16 C6.98171738 16.7209045 6.98171738 16.7209045 11 17 C11 16.34 11 15.68 11 15 C13.97 15 16.94 15 20 15 C19.67 16.65 19.34 18.3 19 20 C18.01 20.33 17.02 20.66 16 21 C15.566875 21.99 15.566875 21.99 15.125 23 C14 25 14 25 11.625 25.75 C7.53881243 26.13916072 3.98263113 25.88502914 0 25 C-0.33 23.35 -0.66 21.7 -1 20 C-2.65 19.67 -4.3 19.34 -6 19 C-7.00335818 15.87844121 -6.80670923 14.12599828 -6 11 C-6.33 10.01 -6.66 9.02 -7 8 C-5.75 5.8125 -5.75 5.8125 -4 4 C-3.01 4 -2.02 4 -1 4 C-0.67 2.68 -0.34 1.36 0 0 Z " fill="#37ACD5" transform="translate(9,34)"/>
<path d="M0 0 C6.27 0 12.54 0 19 0 C19.33 0.99 19.66 1.98 20 3 C23.96 3 27.92 3 32 3 C32.495 5.475 32.495 5.475 33 8 C32.34 8 31.68 8 31 8 C31 7.01 31 6.02 31 5 C27.37 5 23.74 5 20 5 C20.020625 5.969375 20.04125 6.93875 20.0625 7.9375 C20 11 20 11 19 12 C17.58429877 12.08651611 16.164405 12.10704904 14.74609375 12.09765625 C13.89208984 12.09443359 13.03808594 12.09121094 12.15820312 12.08789062 C11.26037109 12.07951172 10.36253906 12.07113281 9.4375 12.0625 C8.53580078 12.05798828 7.63410156 12.05347656 6.70507812 12.04882812 C4.47002411 12.03700244 2.23500398 12.01906638 0 12 C0 8.04 0 4.08 0 0 Z " fill="#59B6DA" transform="translate(5,11)"/>
<path d="M0 0 C3.3 0.33 6.6 0.66 10 1 C10 5.62 10 10.24 10 15 C6.7 14.67 3.4 14.34 0 14 C0 15.98 0 17.96 0 20 C-0.33 20 -0.66 20 -1 20 C-1.18451025 9.44191344 -1.18451025 9.44191344 0 5 C-0.66 5 -1.32 5 -2 5 C-1.34 3.35 -0.68 1.7 0 0 Z " fill="#3E69D1" transform="translate(58,29)"/>
<path d="M0 0 C1.98 0 3.96 0 6 0 C6.36419665 4.10334171 6.7146393 8.2077437 7.0625 12.3125 C7.16626953 13.47974609 7.27003906 14.64699219 7.37695312 15.84960938 C7.47041016 16.96787109 7.56386719 18.08613281 7.66015625 19.23828125 C7.74918213 20.26993408 7.83820801 21.30158691 7.92993164 22.36450195 C8 25 8 25 7 28 C5.02 28 3.04 28 1 28 C1 27.34 1 26.68 1 26 C1.66 26 2.32 26 3 26 C2.690625 24.865625 2.38125 23.73125 2.0625 22.5625 C0.38744128 15.17323386 0.32912526 7.5438973 0 0 Z " fill="#322E32" transform="translate(61,44)"/>
<path d="M0 0 C0.98871094 -0.01417969 1.97742188 -0.02835937 2.99609375 -0.04296875 C5.5625 0.1875 5.5625 0.1875 7.5625 2.1875 C7.75 5.75 7.75 5.75 7.5625 9.1875 C6.5625 10.1875 6.5625 10.1875 3.875 10.3203125 C2.781875 10.31773438 1.68875 10.31515625 0.5625 10.3125 C-0.530625 10.31507812 -1.62375 10.31765625 -2.75 10.3203125 C-5.4375 10.1875 -5.4375 10.1875 -6.4375 9.1875 C-6.5703125 7.375 -6.5703125 7.375 -6.5625 5.1875 C-6.56507812 4.465625 -6.56765625 3.74375 -6.5703125 3 C-6.28218264 -0.93212514 -3.28208886 0.02133998 0 0 Z " fill="#6FC0C9" transform="translate(68.4375,1.8125)"/>
<path d="M0 0 C0.99 0 1.98 0 3 0 C3 7.26 3 14.52 3 22 C1.35 22 -0.3 22 -2 22 C-3 21 -3 21 -3.11352539 19.23413086 C-3.10828857 18.48526611 -3.10305176 17.73640137 -3.09765625 16.96484375 C-3.09443359 16.15595703 -3.09121094 15.34707031 -3.08789062 14.51367188 C-3.07951172 13.66353516 -3.07113281 12.81339844 -3.0625 11.9375 C-3.05798828 11.08349609 -3.05347656 10.22949219 -3.04882812 9.34960938 C-3.03700373 7.23304337 -3.01906769 5.11651315 -3 3 C-2.01 2.67 -1.02 2.34 0 2 C0 1.34 0 0.68 0 0 Z " fill="#DC7E5E" transform="translate(33,23)"/>
<path d="M0 0 C2.3125 -0.25 2.3125 -0.25 5 0 C6.04115841 1.30144802 7.03886134 2.63838689 8 4 C10.58498512 5.26847685 10.58498512 5.26847685 13 6 C13 7.98 13 9.96 13 12 C11.02 12.66 9.04 13.32 7 14 C3.67537469 11.1043586 2.69848394 9.30731763 2 5 C1.34 4.67 0.68 4.34 0 4 C0 2.68 0 1.36 0 0 Z " fill="#E6AA3E" transform="translate(53,14)"/>
<path d="M0 0 C0.66 0 1.32 0 2 0 C2 1.32 2 2.64 2 4 C2.99 4 3.98 4 5 4 C5 10.27 5 16.54 5 23 C3.35 23 1.7 23 0 23 C0 15.41 0 7.82 0 0 Z " fill="#995F53" transform="translate(38,22)"/>
<path d="M0 0 C1.875 0.125 1.875 0.125 4 1 C4.71706982 2.98248715 5.38290413 4.98415349 6 7 C8.78114056 9.33391203 8.78114056 9.33391203 11.6875 8.625 C12.450625 8.41875 13.21375 8.2125 14 8 C14 8.99 14 9.98 14 11 C14.66 11.33 15.32 11.66 16 12 C12.37 12 8.74 12 5 12 C5 11.34 5 10.68 5 10 C2.69 10 0.38 10 -2 10 C-2.66 8.68 -3.32 7.36 -4 6 C-3.01 5.67 -2.02 5.34 -1 5 C-0.67 3.35 -0.34 1.7 0 0 Z " fill="#3BB0DA" transform="translate(52,18)"/>
<path d="M0 0 C0.99 0 1.98 0 3 0 C3.02685095 2.47923801 3.04676547 4.9581884 3.0625 7.4375 C3.07087891 8.14455078 3.07925781 8.85160156 3.08789062 9.58007812 C3.09653588 11.38693559 3.05220011 13.19387603 3 15 C2.67 15.33 2.34 15.66 2 16 C0.35 16 -1.3 16 -3 16 C-3 11.38 -3 6.76 -3 2 C-2.01 2 -1.02 2 0 2 C0 1.34 0 0.68 0 0 Z " fill="#E57D55" transform="translate(19,29)"/>
<path d="M0 0 C13.53 0 27.06 0 41 0 C40.67 0.66 40.34 1.32 40 2 C38.83428467 2.02505615 37.66856934 2.0501123 36.4675293 2.07592773 C32.14563869 2.17004691 27.8239071 2.27025669 23.50219727 2.37231445 C21.63114134 2.41564622 19.76004631 2.45732257 17.88891602 2.49731445 C15.20056369 2.55505949 12.51240785 2.61874181 9.82421875 2.68359375 C8.56782845 2.70866249 8.56782845 2.70866249 7.28605652 2.73423767 C3.96326712 2.81914061 1.17247982 2.94250673 -2 4 C-1.34 2.68 -0.68 1.36 0 0 Z " fill="#E6E3DD" transform="translate(13,6)"/>
<path d="M0 0 C2.31 0 4.62 0 7 0 C6.67 1.98 6.34 3.96 6 6 C6.66 6 7.32 6 8 6 C8 7.65 8 9.3 8 11 C5.6875 11.6875 5.6875 11.6875 3 12 C1.34375 10.8125 1.34375 10.8125 0 9 C-0.29296875 6.73828125 -0.29296875 6.73828125 -0.1875 4.3125 C-0.16042969 3.50425781 -0.13335937 2.69601563 -0.10546875 1.86328125 C-0.07066406 1.24839844 -0.03585938 0.63351563 0 0 Z " fill="#D1BBB9" transform="translate(50,28)"/>
<path d="M0 0 C0.99 0.33 1.98 0.66 3 1 C3 5.29 3 9.58 3 14 C1.35 14.33 -0.3 14.66 -2 15 C-3 14 -3 14 -3.09765625 11.49609375 C-3.08605469 10.48675781 -3.07445313 9.47742188 -3.0625 8.4375 C-3.05347656 7.42558594 -3.04445313 6.41367187 -3.03515625 5.37109375 C-3.02355469 4.58863281 -3.01195313 3.80617187 -3 3 C-2.01 3 -1.02 3 0 3 C0 2.01 0 1.02 0 0 Z " fill="#DF7F5D" transform="translate(26,30)"/>
<path d="M0 0 C0.33 0 0.66 0 1 0 C1 2.31 1 4.62 1 7 C1.99 6.67 2.98 6.34 4 6 C5.89470816 5.9314505 7.7916834 5.91519628 9.6875 5.9375 C10.68136719 5.94652344 11.67523438 5.95554687 12.69921875 5.96484375 C13.83810547 5.98224609 13.83810547 5.98224609 15 6 C15.33 6.99 15.66 7.98 16 9 C10.39 9 4.78 9 -1 9 C-1 1 -1 1 0 0 Z " fill="#30A5D8" transform="translate(7,14)"/>
<path d="M0 0 C-0.99 0.33 -1.98 0.66 -3 1 C-3.2165625 2.11375 -3.2165625 2.11375 -3.4375 3.25 C-3.90187492 5.52027739 -4.41863569 7.75759479 -5 10 C-6.9375 10.5625 -6.9375 10.5625 -9 11 C-10 10 -10 10 -10.375 7.1875 C-10 4 -10 4 -7.8125 1.625 C-4.83740565 -0.0939434 -3.36303824 -0.38434723 0 0 Z " fill="#E8D03F" transform="translate(56,13)"/>
<path d="M0 0 C0.99 0 1.98 0 3 0 C3 5.94 3 11.88 3 18 C2.01 18 1.02 18 0 18 C0 12.06 0 6.12 0 0 Z " fill="#534D5D" transform="translate(30,26)"/>
<path d="M0 0 C0.66 0.33 1.32 0.66 2 1 C2 3.31 2 5.62 2 8 C-1.3 8 -4.6 8 -8 8 C-8.33 7.34 -8.66 6.68 -9 6 C-8.34 6 -7.68 6 -7 6 C-6.67 4.68 -6.34 3.36 -6 2 C-3.03 2.495 -3.03 2.495 0 3 C0 2.01 0 1.02 0 0 Z " fill="#40A9D7" transform="translate(73,4)"/>
<path d="M0 0 C1.65 0 3.3 0 5 0 C4.01 0.495 4.01 0.495 3 1 C3 6.94 3 12.88 3 19 C-0.02093215 15.97906785 0.53323166 12.43627928 0.375 8.375 C0.33632813 7.57320312 0.29765625 6.77140625 0.2578125 5.9453125 C0.16346069 3.96392444 0.08063785 1.98199355 0 0 Z " fill="#22202A" transform="translate(61,44)"/>
<path d="M0 0 C0.99 0 1.98 0 3 0 C3 4.29 3 8.58 3 13 C3.66 13.33 4.32 13.66 5 14 C3.35 14 1.7 14 0 14 C0 9.38 0 4.76 0 0 Z " fill="#5E5565" transform="translate(16,31)"/>
<path d="M0 0 C2.97 0 5.94 0 9 0 C8.67 1.65 8.34 3.3 8 5 C7.01 5.33 6.02 5.66 5 6 C4.01 7.485 4.01 7.485 3 9 C3 7.02 3 5.04 3 3 C2.01 2.67 1.02 2.34 0 2 C0 1.34 0 0.68 0 0 Z " fill="#3D97C2" transform="translate(20,49)"/>
<path d="M0 0 C1.66611905 -0.042721 3.33382885 -0.04063832 5 0 C6 1 6 1 6.0625 4.0625 C6.041875 5.031875 6.02125 6.00125 6 7 C3.625 7.1875 3.625 7.1875 1 7 C-1 4 -1 4 -0.625 1.8125 C-0.41875 1.214375 -0.2125 0.61625 0 0 Z " fill="#232123" transform="translate(60,19)"/>
<path d="M0 0 C1.2065625 0.0309375 1.2065625 0.0309375 2.4375 0.0625 C2.1075 2.3725 1.7775 4.6825 1.4375 7.0625 C-0.2125 7.0625 -1.8625 7.0625 -3.5625 7.0625 C-3.60504356 5.06295254 -3.60330783 3.06208364 -3.5625 1.0625 C-2.5625 0.0625 -2.5625 0.0625 0 0 Z " fill="#DD9828" transform="translate(54.5625,27.9375)"/>
<path d="M0 0 C0.66 0 1.32 0 2 0 C2.71033431 5.52967941 3.30267176 10.49983036 2 16 C1.34 16 0.68 16 0 16 C0 10.72 0 5.44 0 0 Z " fill="#3D3427" transform="translate(60,53)"/>
<path d="M0 0 C2.97 0 5.94 0 9 0 C9 0.33 9 0.66 9 1 C7.02 1 5.04 1 3 1 C3.33 3.97 3.66 6.94 4 10 C3.34 10 2.68 10 2 10 C2 9.01 2 8.02 2 7 C1.01 7.33 0.02 7.66 -1 8 C-0.67 5.36 -0.34 2.72 0 0 Z " fill="#333751" transform="translate(58,43)"/>
<path d="M0 0 C0.99 0 1.98 0 3 0 C3 3.63 3 7.26 3 11 C2.01 11 1.02 11 0 11 C0 7.37 0 3.74 0 0 Z " fill="#534D5D" transform="translate(23,33)"/>
<path d="M0 0 C0 1.65 0 3.3 0 5 C-0.33 5 -0.66 5 -1 5 C-1.66 8.3 -2.32 11.6 -3 15 C-3.33 15 -3.66 15 -4 15 C-4 10.38 -4 5.76 -4 1 C-2 0 -2 0 0 0 Z " fill="#433E3D" transform="translate(60,50)"/>
<path d="M0 0 C0.66 0 1.32 0 2 0 C2 3.63 2 7.26 2 11 C1.34 11 0.68 11 0 11 C0 12.98 0 14.96 0 17 C-0.33 17 -0.66 17 -1 17 C-1.10477512 11.21408489 -0.99250545 5.70690634 0 0 Z " fill="#4865C5" transform="translate(58,32)"/>
<path d="M0 0 C3.96 0 7.92 0 12 0 C12.33 1.65 12.66 3.3 13 5 C12.34 5 11.68 5 11 5 C11 4.01 11 3.02 11 2 C7.37 2 3.74 2 0 2 C0 1.34 0 0.68 0 0 Z " fill="#797682" transform="translate(25,14)"/>
<path d="M0 0 C2.63804589 -0.39397335 2.63804589 -0.39397335 5 -1 C5 -0.01 5 0.98 5 2 C5.66 2.33 6.32 2.66 7 3 C3.37 3 -0.26 3 -4 3 C-4 2.34 -4 1.68 -4 1 C-5.32 0.67 -6.64 0.34 -8 0 C-4.71303767 -0.79953138 -3.28976808 -1.09658936 0 0 Z " fill="#A2A9B9" transform="translate(61,27)"/>
<path d="M0 0 C-0.33 0.99 -0.66 1.98 -1 3 C-3.97 2.505 -3.97 2.505 -7 2 C-6.67 3.32 -6.34 4.64 -6 6 C-6.99 6 -7.98 6 -9 6 C-8.34 4.02 -7.68 2.04 -7 0 C-2.25 -1.125 -2.25 -1.125 0 0 Z " fill="#656167" transform="translate(61,6)"/>
<path d="M0 0 C2.97 0.33 5.94 0.66 9 1 C9 1.66 9 2.32 9 3 C6.1875 3.625 6.1875 3.625 3 4 C2.01 3.34 1.02 2.68 0 2 C0 1.34 0 0.68 0 0 Z " fill="#DBC485" transform="translate(11,48)"/>
<path d="M0 0 C1.98 0.495 1.98 0.495 4 1 C4 2.32 4 3.64 4 5 C2.35 5 0.7 5 -1 5 C-0.67 3.35 -0.34 1.7 0 0 Z " fill="#CCC4D1" transform="translate(52,18)"/>
<path d="M0 0 C0.66 0 1.32 0 2 0 C4 3 4 3 3.625 5.6875 C3.41875 6.450625 3.2125 7.21375 3 8 C2.01 8 1.02 8 0 8 C0 5.36 0 2.72 0 0 Z " fill="#928684" transform="translate(8,13)"/>
<path d="M0 0 C0.66 0.33 1.32 0.66 2 1 C2.30466674 6.28089024 2.317124 7.577168 -1 12 C-0.67 8.04 -0.34 4.08 0 0 Z " fill="#34313F" transform="translate(58,54)"/>
<path d="M0 0 C0.99 0 1.98 0 3 0 C3.125 4.75 3.125 4.75 2 7 C1.01 6.67 0.02 6.34 -1 6 C-0.67 4.02 -0.34 2.04 0 0 Z " fill="#788F9C" transform="translate(63,5)"/>
<path d="M0 0 C0.33 0 0.66 0 1 0 C1.33 3.3 1.66 6.6 2 10 C1.01 10.33 0.02 10.66 -1 11 C-0.67 7.37 -0.34 3.74 0 0 Z " fill="#5D4E3C" transform="translate(67,59)"/>
<path d="M0 0 C0.33 1.32 0.66 2.64 1 4 C-0.65 4.33 -2.3 4.66 -4 5 C-4.33 4.01 -4.66 3.02 -5 2 C-3.35 1.34 -1.7 0.68 0 0 Z " fill="#BE4936" transform="translate(57,35)"/>
<path d="M0 0 C0.99 0.66 1.98 1.32 3 2 C3 2.66 3 3.32 3 4 C3.99 4.33 4.98 4.66 6 5 C4.68 5.33 3.36 5.66 2 6 C0.68 4.35 -0.64 2.7 -2 1 C-1.34 0.67 -0.68 0.34 0 0 Z " fill="#B88E6D" transform="translate(58,22)"/>
</svg>
